<svg width="128" height="128" viewBox="0 0 128 128" fill="none" xmlns="http://www.w3.org/2000/svg">
  <path d="M29 76C38 97 58 108 78 101C93 96 105 84 111 67C103 75 95 79 84 81C66 85 48 79 35 66C30 61 27 56 24 49C22 58 23 66 29 76Z" fill="#F8D54A" stroke="#7A5A14" stroke-width="5" stroke-linecap="round" stroke-linejoin="round"/>
  <path d="M35 66C46 77 61 81 77 77C88 75 97 71 107 61" stroke="#FFF0A2" stroke-width="4" stroke-linecap="round"/>
  <path d="M20 42C24 45 27 45 31 42" stroke="#7A5A14" stroke-width="5" stroke-linecap="round"/>
  <path d="M108 60C114 58 117 54 118 47" stroke="#7A5A14" stroke-width="5" stroke-linecap="round"/>
  <ellipse cx="45" cy="91" rx="20" ry="7" fill="#000000" fill-opacity="0.08"/>
</svg>
