<svg width="160" height="160" viewBox="0 0 160 160" fill="none" xmlns="http://www.w3.org/2000/svg">
  <ellipse cx="80" cy="123" rx="42" ry="12" fill="#000000" fill-opacity="0.08"/>
  <path d="M42 73C42 58 59 46 80 46C101 46 118 58 118 73" stroke="#A36A2B" stroke-width="8" stroke-linecap="round"/>
  <path d="M37 79H123L115 119C113 132 102 142 89 142H71C58 142 47 132 45 119L37 79Z" fill="#D79C54" stroke="#8A5B24" stroke-width="6" stroke-linejoin="round"/>
  <path d="M52 90V132" stroke="#B77734" stroke-width="5" stroke-linecap="round"/>
  <path d="M69 86V137" stroke="#B77734" stroke-width="5" stroke-linecap="round"/>
  <path d="M86 86V137" stroke="#B77734" stroke-width="5" stroke-linecap="round"/>
  <path d="M103 90V132" stroke="#B77734" stroke-width="5" stroke-linecap="round"/>
  <path d="M44 95H116" stroke="#E6B574" stroke-width="4" stroke-linecap="round"/>
  <path d="M47 109H113" stroke="#E6B574" stroke-width="4" stroke-linecap="round"/>
  <path d="M50 123H110" stroke="#E6B574" stroke-width="4" stroke-linecap="round"/>
</svg>
