<svg width="192" height="192" viewBox="0 0 192 192" fill="none" xmlns="http://www.w3.org/2000/svg">
  <ellipse cx="72" cy="84" rx="16" ry="20" fill="#EAF5FF" stroke="#5A463A" stroke-width="3.5"/>
  <ellipse cx="120" cy="84" rx="16" ry="20" fill="#EAF5FF" stroke="#5A463A" stroke-width="3.5"/>
  <path d="M79 76L72 64" stroke="#5A463A" stroke-width="3.5" stroke-linecap="round"/>
  <path d="M113 76L120 64" stroke="#5A463A" stroke-width="3.5" stroke-linecap="round"/>
  <circle cx="71" cy="61" r="5.5" fill="#FFD95B" stroke="#5A463A" stroke-width="3.5"/>
  <circle cx="121" cy="61" r="5.5" fill="#FFD95B" stroke="#5A463A" stroke-width="3.5"/>
  <ellipse cx="96" cy="109" rx="37" ry="33" fill="#FFD95B" stroke="#5A463A" stroke-width="3.5"/>
  <path d="M73 99H119" stroke="#5A463A" stroke-width="6" stroke-linecap="round"/>
  <path d="M71 114H121" stroke="#5A463A" stroke-width="6" stroke-linecap="round"/>
  <ellipse cx="83" cy="98" rx="5.5" ry="7.5" fill="#2E2622"/>
  <ellipse cx="109" cy="98" rx="5.5" ry="7.5" fill="#2E2622"/>
  <path d="M89 110C91 114 94 116 96 116C98 116 101 114 103 110" stroke="#5A463A" stroke-width="3.5" stroke-linecap="round"/>
  <ellipse cx="71" cy="111" rx="5.5" ry="4" fill="#F5B7A1" fill-opacity="0.72"/>
  <ellipse cx="121" cy="111" rx="5.5" ry="4" fill="#F5B7A1" fill-opacity="0.72"/>
</svg>
