<svg width="192" height="192" viewBox="0 0 192 192" fill="none" xmlns="http://www.w3.org/2000/svg">
  <rect x="68" y="24" width="18" height="56" rx="9" fill="#FFFDFB" stroke="#4A3B34" stroke-width="4"/>
  <rect x="106" y="24" width="18" height="56" rx="9" fill="#FFFDFB" stroke="#4A3B34" stroke-width="4"/>
  <rect x="74" y="33" width="6" height="35" rx="3" fill="#FFC6D8"/>
  <rect x="112" y="33" width="6" height="35" rx="3" fill="#FFC6D8"/>
  <circle cx="96" cy="104" r="45" fill="#FFFDFB" stroke="#4A3B34" stroke-width="4"/>
  <ellipse cx="80" cy="98" rx="6.5" ry="8" fill="#2B2320"/>
  <ellipse cx="112" cy="98" rx="6.5" ry="8" fill="#2B2320"/>
  <ellipse cx="96" cy="122" rx="25" ry="18" fill="#F8EFF3" stroke="#4A3B34" stroke-width="4"/>
  <path d="M96 111C92 111 89 114 89 117C89 121 92 123 96 123C100 123 103 121 103 117C103 114 100 111 96 111Z" fill="#F598B8"/>
  <path d="M89 126C91 130 94 132 96 132C98 132 101 130 103 126" stroke="#4A3B34" stroke-width="4" stroke-linecap="round"/>
  <ellipse cx="70" cy="112" rx="6" ry="4.5" fill="#FFC6D8" fill-opacity="0.72"/>
  <ellipse cx="122" cy="112" rx="6" ry="4.5" fill="#FFC6D8" fill-opacity="0.72"/>
</svg>
