<svg width="192" height="192" viewBox="0 0 192 192" fill="none" xmlns="http://www.w3.org/2000/svg">
  <circle cx="96" cy="96" r="58" fill="#FFF7F0"/>
  <path d="M55 77L72 50L84 79" fill="#F3C086" stroke="#4A3B34" stroke-width="4" stroke-linejoin="round"/>
  <path d="M137 77L120 50L108 79" fill="#F3C086" stroke="#4A3B34" stroke-width="4" stroke-linejoin="round"/>
  <circle cx="96" cy="103" r="46" fill="#F7C98F" stroke="#4A3B34" stroke-width="4"/>
  <ellipse cx="80" cy="98" rx="6.5" ry="8" fill="#2B2320"/>
  <ellipse cx="112" cy="98" rx="6.5" ry="8" fill="#2B2320"/>
  <ellipse cx="96" cy="119" rx="24" ry="18" fill="#FFF4E7" stroke="#4A3B34" stroke-width="4"/>
  <path d="M96 110L102 116H90L96 110Z" fill="#2B2320"/>
  <path d="M89 126C91 130 94 132 96 132C98 132 101 130 103 126" stroke="#4A3B34" stroke-width="4" stroke-linecap="round"/>
  <path d="M75 118L59 115" stroke="#4A3B34" stroke-width="3.5" stroke-linecap="round"/>
  <path d="M76 125H58" stroke="#4A3B34" stroke-width="3.5" stroke-linecap="round"/>
  <path d="M117 118L133 115" stroke="#4A3B34" stroke-width="3.5" stroke-linecap="round"/>
  <path d="M116 125H134" stroke="#4A3B34" stroke-width="3.5" stroke-linecap="round"/>
  <ellipse cx="70" cy="112" rx="6" ry="4.5" fill="#F7B2A7" fill-opacity="0.7"/>
  <ellipse cx="122" cy="112" rx="6" ry="4.5" fill="#F7B2A7" fill-opacity="0.7"/>
</svg>
