<svg width="192" height="192" viewBox="0 0 192 192" fill="none" xmlns="http://www.w3.org/2000/svg">
  <rect x="73" y="39" width="10" height="23" rx="5" fill="#D89F4B" stroke="#5A463A" stroke-width="3.5"/>
  <rect x="109" y="39" width="10" height="23" rx="5" fill="#D89F4B" stroke="#5A463A" stroke-width="3.5"/>
  <circle cx="78" cy="35" r="5.5" fill="#D89F4B" stroke="#5A463A" stroke-width="3.5"/>
  <circle cx="114" cy="35" r="5.5" fill="#D89F4B" stroke="#5A463A" stroke-width="3.5"/>
  <ellipse cx="96" cy="106" rx="42" ry="41" fill="#FFD25A" stroke="#5A463A" stroke-width="3.5"/>
  <path d="M67 84C73 79 79 77 84 77" stroke="#D89F4B" stroke-width="8" stroke-linecap="round"/>
  <path d="M125 84C119 79 113 77 108 77" stroke="#D89F4B" stroke-width="8" stroke-linecap="round"/>
  <circle cx="81" cy="95" r="6.5" fill="#D89F4B"/>
  <circle cx="112" cy="103" r="7" fill="#D89F4B"/>
  <circle cx="83" cy="118" r="6.5" fill="#D89F4B"/>
  <circle cx="109" cy="123" r="6" fill="#D89F4B"/>
  <ellipse cx="80" cy="99" rx="5.5" ry="7.5" fill="#2E2622"/>
  <ellipse cx="112" cy="99" rx="5.5" ry="7.5" fill="#2E2622"/>
  <ellipse cx="96" cy="123" rx="24" ry="20" fill="#FFF1CC" stroke="#5A463A" stroke-width="3.5"/>
  <path d="M89 126C91 129 94 131 96 131C98 131 101 129 103 126" stroke="#5A463A" stroke-width="3.5" stroke-linecap="round"/>
  <ellipse cx="69" cy="113" rx="6" ry="4.5" fill="#F7BAA8" fill-opacity="0.72"/>
  <ellipse cx="123" cy="113" rx="6" ry="4.5" fill="#F7BAA8" fill-opacity="0.72"/>
</svg>
