<svg width="192" height="192" viewBox="0 0 192 192" fill="none" xmlns="http://www.w3.org/2000/svg">
  <circle cx="62" cy="67" r="16" fill="#433E3D" stroke="#4A3B34" stroke-width="4"/>
  <circle cx="130" cy="67" r="16" fill="#433E3D" stroke="#4A3B34" stroke-width="4"/>
  <circle cx="96" cy="103" r="46" fill="#FFFDF8" stroke="#4A3B34" stroke-width="4"/>
  <ellipse cx="79" cy="97" rx="13" ry="16" fill="#433E3D"/>
  <ellipse cx="113" cy="97" rx="13" ry="16" fill="#433E3D"/>
  <circle cx="81" cy="98" r="4.5" fill="#FFFFFF"/>
  <circle cx="111" cy="98" r="4.5" fill="#FFFFFF"/>
  <circle cx="81" cy="98" r="2" fill="#2B2320"/>
  <circle cx="111" cy="98" r="2" fill="#2B2320"/>
  <ellipse cx="96" cy="121" rx="25" ry="18" fill="#F3F0EA" stroke="#4A3B34" stroke-width="4"/>
  <ellipse cx="96" cy="114" rx="8" ry="6" fill="#2B2320"/>
  <path d="M89 126C91 130 94 132 96 132C98 132 101 130 103 126" stroke="#4A3B34" stroke-width="4" stroke-linecap="round"/>
  <ellipse cx="70" cy="112" rx="6" ry="4.5" fill="#F4C7D5" fill-opacity="0.72"/>
  <ellipse cx="122" cy="112" rx="6" ry="4.5" fill="#F4C7D5" fill-opacity="0.72"/>
</svg>
